<mxfile host="app.diagrams.net" modified="2023-09-26T01:26:55.172Z" agent="Mozilla/5.0 (Windows NT 10.0; Win64; x64) AppleWebKit/537.36 (KHTML, like Gecko) Chrome/116.0.0.0 Safari/537.36" etag="w64geTKOqIzi8SiKWAHz" version="21.8.2" type="device">
  <diagram name="Página-1" id="kAFfkRWMsdue_oSPnwPb">
    <mxGraphModel dx="1114" dy="1779" grid="1" gridSize="10" guides="1" tooltips="1" connect="1" arrows="1" fold="1" page="1" pageScale="1" pageWidth="827" pageHeight="1169" math="0" shadow="0">
      <root>
        <mxCell id="0" />
        <mxCell id="1" parent="0" />
        <mxCell id="jQlSUo2Xd1RlmQ2qNDPY-14" value="" style="edgeStyle=orthogonalEdgeStyle;rounded=0;orthogonalLoop=1;jettySize=auto;html=1;" edge="1" parent="1" source="jQlSUo2Xd1RlmQ2qNDPY-1">
          <mxGeometry relative="1" as="geometry">
            <mxPoint x="385" y="80" as="targetPoint" />
          </mxGeometry>
        </mxCell>
        <mxCell id="jQlSUo2Xd1RlmQ2qNDPY-1" value="inicio" style="strokeWidth=2;html=1;shape=mxgraph.flowchart.terminator;whiteSpace=wrap;" vertex="1" parent="1">
          <mxGeometry x="320" y="-30" width="130" height="80" as="geometry" />
        </mxCell>
        <mxCell id="jQlSUo2Xd1RlmQ2qNDPY-5" style="edgeStyle=orthogonalEdgeStyle;rounded=0;orthogonalLoop=1;jettySize=auto;html=1;" edge="1" parent="1">
          <mxGeometry relative="1" as="geometry">
            <mxPoint x="355" y="470" as="sourcePoint" />
            <mxPoint x="352" y="500" as="targetPoint" />
          </mxGeometry>
        </mxCell>
        <mxCell id="jQlSUo2Xd1RlmQ2qNDPY-8" style="edgeStyle=orthogonalEdgeStyle;rounded=0;orthogonalLoop=1;jettySize=auto;html=1;" edge="1" parent="1">
          <mxGeometry relative="1" as="geometry">
            <mxPoint x="463" y="690" as="targetPoint" />
            <mxPoint x="522" y="410" as="sourcePoint" />
            <Array as="points">
              <mxPoint x="522" y="411" />
              <mxPoint x="697" y="411" />
              <mxPoint x="697" y="690" />
            </Array>
          </mxGeometry>
        </mxCell>
        <mxCell id="jQlSUo2Xd1RlmQ2qNDPY-2" value="nome1&lt;br&gt;nome2&lt;br&gt;peso1&lt;br&gt;peso2&lt;br&gt;" style="html=1;strokeWidth=2;shape=manualInput;whiteSpace=wrap;rounded=1;size=26;arcSize=11;" vertex="1" parent="1">
          <mxGeometry x="210" y="300" width="346" height="160" as="geometry" />
        </mxCell>
        <mxCell id="jQlSUo2Xd1RlmQ2qNDPY-6" style="edgeStyle=orthogonalEdgeStyle;rounded=0;orthogonalLoop=1;jettySize=auto;html=1;exitX=0.5;exitY=1;exitDx=0;exitDy=0;exitPerimeter=0;" edge="1" parent="1">
          <mxGeometry relative="1" as="geometry">
            <mxPoint x="352" y="600" as="sourcePoint" />
            <mxPoint x="342.5" y="650" as="targetPoint" />
          </mxGeometry>
        </mxCell>
        <mxCell id="jQlSUo2Xd1RlmQ2qNDPY-3" value="peso1&amp;gt;peso2&lt;br&gt;ou&lt;br&gt;peso2&amp;gt;peso1" style="strokeWidth=2;html=1;shape=mxgraph.flowchart.decision;whiteSpace=wrap;" vertex="1" parent="1">
          <mxGeometry x="230" y="490" width="240" height="100" as="geometry" />
        </mxCell>
        <mxCell id="jQlSUo2Xd1RlmQ2qNDPY-16" style="edgeStyle=orthogonalEdgeStyle;rounded=0;orthogonalLoop=1;jettySize=auto;html=1;" edge="1" parent="1">
          <mxGeometry relative="1" as="geometry">
            <mxPoint x="342.5" y="750" as="sourcePoint" />
            <mxPoint x="342.5" y="800" as="targetPoint" />
          </mxGeometry>
        </mxCell>
        <mxCell id="jQlSUo2Xd1RlmQ2qNDPY-4" value="final = nome1 + &quot;mais pesada que &quot; + nome2&lt;br&gt;ou&lt;br&gt;final = nome2 + &quot;mais pesada que&quot; + nome2" style="rounded=1;whiteSpace=wrap;html=1;absoluteArcSize=1;arcSize=14;strokeWidth=2;" vertex="1" parent="1">
          <mxGeometry x="220" y="640" width="241" height="100" as="geometry" />
        </mxCell>
        <mxCell id="jQlSUo2Xd1RlmQ2qNDPY-10" value="&lt;span style=&quot;color: rgb(0, 0, 0); font-family: Helvetica; font-size: 31px; font-style: normal; font-variant-ligatures: normal; font-variant-caps: normal; font-weight: 400; letter-spacing: normal; orphans: 2; text-align: center; text-indent: 0px; text-transform: none; widows: 2; word-spacing: 0px; -webkit-text-stroke-width: 0px; background-color: rgb(251, 251, 251); text-decoration-thickness: initial; text-decoration-style: initial; text-decoration-color: initial; float: none; display: inline !important;&quot;&gt;v&lt;/span&gt;" style="text;whiteSpace=wrap;html=1;strokeWidth=2;fontSize=31;" vertex="1" parent="1">
          <mxGeometry x="230" y="570" width="40" height="40" as="geometry" />
        </mxCell>
        <mxCell id="jQlSUo2Xd1RlmQ2qNDPY-11" value="&lt;div style=&quot;text-align: center;&quot;&gt;&lt;span style=&quot;background-color: initial;&quot;&gt;F&lt;/span&gt;&lt;/div&gt;" style="text;whiteSpace=wrap;html=1;strokeWidth=2;fontSize=31;" vertex="1" parent="1">
          <mxGeometry x="642" y="360" width="40" height="40" as="geometry" />
        </mxCell>
        <mxCell id="jQlSUo2Xd1RlmQ2qNDPY-17" style="edgeStyle=orthogonalEdgeStyle;rounded=0;orthogonalLoop=1;jettySize=auto;html=1;" edge="1" parent="1">
          <mxGeometry relative="1" as="geometry">
            <mxPoint x="385" y="260" as="sourcePoint" />
            <mxPoint x="385" y="310" as="targetPoint" />
          </mxGeometry>
        </mxCell>
        <mxCell id="jQlSUo2Xd1RlmQ2qNDPY-12" value="&#xa;&lt;span style=&quot;color: rgb(0, 0, 0); font-family: Helvetica; font-size: 12px; font-style: normal; font-variant-ligatures: normal; font-variant-caps: normal; font-weight: 400; letter-spacing: normal; orphans: 2; text-align: center; text-indent: 0px; text-transform: none; widows: 2; word-spacing: 0px; -webkit-text-stroke-width: 0px; background-color: rgb(251, 251, 251); text-decoration-thickness: initial; text-decoration-style: initial; text-decoration-color: initial; float: none; display: inline !important;&quot;&gt;&quot;digite o nome da primeira pessoa&quot;&lt;/span&gt;&lt;br style=&quot;border-color: var(--border-color); color: rgb(0, 0, 0); font-family: Helvetica; font-size: 12px; font-style: normal; font-variant-ligatures: normal; font-variant-caps: normal; font-weight: 400; letter-spacing: normal; orphans: 2; text-align: center; text-indent: 0px; text-transform: none; widows: 2; word-spacing: 0px; -webkit-text-stroke-width: 0px; background-color: rgb(251, 251, 251); text-decoration-thickness: initial; text-decoration-style: initial; text-decoration-color: initial;&quot;&gt;&lt;span style=&quot;color: rgb(0, 0, 0); font-family: Helvetica; font-size: 12px; font-style: normal; font-variant-ligatures: normal; font-variant-caps: normal; font-weight: 400; letter-spacing: normal; orphans: 2; text-align: center; text-indent: 0px; text-transform: none; widows: 2; word-spacing: 0px; -webkit-text-stroke-width: 0px; background-color: rgb(251, 251, 251); text-decoration-thickness: initial; text-decoration-style: initial; text-decoration-color: initial; float: none; display: inline !important;&quot;&gt;&quot;digite o nome da segunda pessoa&quot;&lt;/span&gt;&lt;br style=&quot;border-color: var(--border-color); color: rgb(0, 0, 0); font-family: Helvetica; font-size: 12px; font-style: normal; font-variant-ligatures: normal; font-variant-caps: normal; font-weight: 400; letter-spacing: normal; orphans: 2; text-align: center; text-indent: 0px; text-transform: none; widows: 2; word-spacing: 0px; -webkit-text-stroke-width: 0px; background-color: rgb(251, 251, 251); text-decoration-thickness: initial; text-decoration-style: initial; text-decoration-color: initial;&quot;&gt;&lt;span style=&quot;color: rgb(0, 0, 0); font-family: Helvetica; font-size: 12px; font-style: normal; font-variant-ligatures: normal; font-variant-caps: normal; font-weight: 400; letter-spacing: normal; orphans: 2; text-align: center; text-indent: 0px; text-transform: none; widows: 2; word-spacing: 0px; -webkit-text-stroke-width: 0px; background-color: rgb(251, 251, 251); text-decoration-thickness: initial; text-decoration-style: initial; text-decoration-color: initial; float: none; display: inline !important;&quot;&gt;&quot;digite o peso da primeira pessoa&quot;&lt;/span&gt;&lt;br style=&quot;border-color: var(--border-color); color: rgb(0, 0, 0); font-family: Helvetica; font-size: 12px; font-style: normal; font-variant-ligatures: normal; font-variant-caps: normal; font-weight: 400; letter-spacing: normal; orphans: 2; text-align: center; text-indent: 0px; text-transform: none; widows: 2; word-spacing: 0px; -webkit-text-stroke-width: 0px; background-color: rgb(251, 251, 251); text-decoration-thickness: initial; text-decoration-style: initial; text-decoration-color: initial;&quot;&gt;&lt;span style=&quot;color: rgb(0, 0, 0); font-family: Helvetica; font-size: 12px; font-style: normal; font-variant-ligatures: normal; font-variant-caps: normal; font-weight: 400; letter-spacing: normal; orphans: 2; text-align: center; text-indent: 0px; text-transform: none; widows: 2; word-spacing: 0px; -webkit-text-stroke-width: 0px; background-color: rgb(251, 251, 251); text-decoration-thickness: initial; text-decoration-style: initial; text-decoration-color: initial; float: none; display: inline !important;&quot;&gt;&quot;digite o peso da segunda pessoa &quot;&lt;/span&gt;&#xa;&#xa;" style="strokeWidth=2;html=1;shape=mxgraph.flowchart.display;whiteSpace=wrap;" vertex="1" parent="1">
          <mxGeometry x="198" y="70" width="370" height="180" as="geometry" />
        </mxCell>
        <mxCell id="jQlSUo2Xd1RlmQ2qNDPY-15" value="nome: maria&lt;br&gt;nome: joana&lt;br&gt;peso: 60 kg&lt;br&gt;Peso: 50 kg&lt;br&gt;Final: maria é mais pesada que&lt;br&gt;joana" style="strokeWidth=2;html=1;shape=mxgraph.flowchart.display;whiteSpace=wrap;" vertex="1" parent="1">
          <mxGeometry x="244.5" y="790" width="192" height="170" as="geometry" />
        </mxCell>
        <mxCell id="jQlSUo2Xd1RlmQ2qNDPY-19" value="fim" style="strokeWidth=2;html=1;shape=mxgraph.flowchart.terminator;whiteSpace=wrap;" vertex="1" parent="1">
          <mxGeometry x="290.5" y="1010" width="100" height="60" as="geometry" />
        </mxCell>
        <mxCell id="jQlSUo2Xd1RlmQ2qNDPY-20" style="edgeStyle=orthogonalEdgeStyle;rounded=0;orthogonalLoop=1;jettySize=auto;html=1;entryX=0.42;entryY=0.017;entryDx=0;entryDy=0;entryPerimeter=0;" edge="1" parent="1">
          <mxGeometry relative="1" as="geometry">
            <mxPoint x="342.5" y="970" as="sourcePoint" />
            <mxPoint x="334.5" y="1021.02" as="targetPoint" />
          </mxGeometry>
        </mxCell>
      </root>
    </mxGraphModel>
  </diagram>
</mxfile>
